<mxfile host="app.diagrams.net" agent="Mozilla/5.0 (Windows NT 10.0; Win64; x64) AppleWebKit/537.36 (KHTML, like Gecko) Chrome/137.0.0.0 Safari/537.36" version="27.1.6">
  <diagram id="C5RBs43oDa-KdzZeNtuy" name="Page-1">
    <mxGraphModel dx="2253" dy="777" grid="1" gridSize="10" guides="1" tooltips="1" connect="1" arrows="1" fold="1" page="1" pageScale="1" pageWidth="827" pageHeight="1169" math="0" shadow="0">
      <root>
        <mxCell id="WIyWlLk6GJQsqaUBKTNV-0" />
        <mxCell id="WIyWlLk6GJQsqaUBKTNV-1" parent="WIyWlLk6GJQsqaUBKTNV-0" />
        <mxCell id="VUNfQqrFmTYTywhOl1RO-51" style="edgeStyle=orthogonalEdgeStyle;rounded=0;orthogonalLoop=1;jettySize=auto;html=1;exitX=0.5;exitY=1;exitDx=0;exitDy=0;entryX=0.5;entryY=0;entryDx=0;entryDy=0;" edge="1" parent="WIyWlLk6GJQsqaUBKTNV-1" source="VUNfQqrFmTYTywhOl1RO-0" target="VUNfQqrFmTYTywhOl1RO-2">
          <mxGeometry relative="1" as="geometry" />
        </mxCell>
        <mxCell id="VUNfQqrFmTYTywhOl1RO-0" value="start" style="ellipse;whiteSpace=wrap;html=1;" vertex="1" parent="WIyWlLk6GJQsqaUBKTNV-1">
          <mxGeometry x="270" y="130" width="120" height="80" as="geometry" />
        </mxCell>
        <mxCell id="VUNfQqrFmTYTywhOl1RO-1" value="&lt;b&gt;&lt;font style=&quot;font-size: 19px;&quot;&gt;Setup Flow&lt;/font&gt;&lt;/b&gt;" style="text;html=1;align=center;verticalAlign=middle;whiteSpace=wrap;rounded=0;" vertex="1" parent="WIyWlLk6GJQsqaUBKTNV-1">
          <mxGeometry x="414" y="80" width="186" height="30" as="geometry" />
        </mxCell>
        <mxCell id="VUNfQqrFmTYTywhOl1RO-8" style="edgeStyle=orthogonalEdgeStyle;rounded=0;orthogonalLoop=1;jettySize=auto;html=1;exitX=0.5;exitY=1;exitDx=0;exitDy=0;entryX=0.5;entryY=0;entryDx=0;entryDy=0;" edge="1" parent="WIyWlLk6GJQsqaUBKTNV-1" source="VUNfQqrFmTYTywhOl1RO-2" target="VUNfQqrFmTYTywhOl1RO-3">
          <mxGeometry relative="1" as="geometry" />
        </mxCell>
        <mxCell id="VUNfQqrFmTYTywhOl1RO-2" value="Login Page" style="whiteSpace=wrap;html=1;aspect=fixed;" vertex="1" parent="WIyWlLk6GJQsqaUBKTNV-1">
          <mxGeometry x="290" y="250" width="80" height="80" as="geometry" />
        </mxCell>
        <mxCell id="VUNfQqrFmTYTywhOl1RO-31" value="No" style="edgeStyle=orthogonalEdgeStyle;rounded=0;orthogonalLoop=1;jettySize=auto;html=1;exitX=0;exitY=0.5;exitDx=0;exitDy=0;entryX=1;entryY=0.5;entryDx=0;entryDy=0;" edge="1" parent="WIyWlLk6GJQsqaUBKTNV-1" source="VUNfQqrFmTYTywhOl1RO-3" target="VUNfQqrFmTYTywhOl1RO-4">
          <mxGeometry relative="1" as="geometry" />
        </mxCell>
        <mxCell id="VUNfQqrFmTYTywhOl1RO-33" value="Yes" style="edgeStyle=orthogonalEdgeStyle;rounded=0;orthogonalLoop=1;jettySize=auto;html=1;exitX=0.5;exitY=1;exitDx=0;exitDy=0;entryX=0.5;entryY=0;entryDx=0;entryDy=0;" edge="1" parent="WIyWlLk6GJQsqaUBKTNV-1" source="VUNfQqrFmTYTywhOl1RO-3" target="VUNfQqrFmTYTywhOl1RO-6">
          <mxGeometry relative="1" as="geometry" />
        </mxCell>
        <mxCell id="VUNfQqrFmTYTywhOl1RO-3" value="Have account ?" style="rhombus;whiteSpace=wrap;html=1;" vertex="1" parent="WIyWlLk6GJQsqaUBKTNV-1">
          <mxGeometry x="270" y="370" width="120" height="110" as="geometry" />
        </mxCell>
        <mxCell id="VUNfQqrFmTYTywhOl1RO-32" style="edgeStyle=orthogonalEdgeStyle;rounded=0;orthogonalLoop=1;jettySize=auto;html=1;exitX=0;exitY=0.5;exitDx=0;exitDy=0;entryX=1;entryY=0.5;entryDx=0;entryDy=0;" edge="1" parent="WIyWlLk6GJQsqaUBKTNV-1" source="VUNfQqrFmTYTywhOl1RO-4" target="VUNfQqrFmTYTywhOl1RO-5">
          <mxGeometry relative="1" as="geometry" />
        </mxCell>
        <mxCell id="VUNfQqrFmTYTywhOl1RO-4" value="Register" style="whiteSpace=wrap;html=1;aspect=fixed;" vertex="1" parent="WIyWlLk6GJQsqaUBKTNV-1">
          <mxGeometry x="130" y="380" width="80" height="80" as="geometry" />
        </mxCell>
        <mxCell id="VUNfQqrFmTYTywhOl1RO-52" style="edgeStyle=orthogonalEdgeStyle;rounded=0;orthogonalLoop=1;jettySize=auto;html=1;exitX=0.5;exitY=1;exitDx=0;exitDy=0;entryX=0;entryY=0.25;entryDx=0;entryDy=0;" edge="1" parent="WIyWlLk6GJQsqaUBKTNV-1" source="VUNfQqrFmTYTywhOl1RO-5" target="VUNfQqrFmTYTywhOl1RO-6">
          <mxGeometry relative="1" as="geometry" />
        </mxCell>
        <mxCell id="VUNfQqrFmTYTywhOl1RO-5" value="&lt;div&gt;create&lt;/div&gt;email&lt;div&gt;password&lt;/div&gt;&lt;div&gt;submit&lt;/div&gt;" style="whiteSpace=wrap;html=1;aspect=fixed;" vertex="1" parent="WIyWlLk6GJQsqaUBKTNV-1">
          <mxGeometry x="-20" y="380" width="80" height="80" as="geometry" />
        </mxCell>
        <mxCell id="VUNfQqrFmTYTywhOl1RO-34" style="edgeStyle=orthogonalEdgeStyle;rounded=0;orthogonalLoop=1;jettySize=auto;html=1;exitX=0.5;exitY=1;exitDx=0;exitDy=0;entryX=0.5;entryY=0;entryDx=0;entryDy=0;" edge="1" parent="WIyWlLk6GJQsqaUBKTNV-1" source="VUNfQqrFmTYTywhOl1RO-6" target="VUNfQqrFmTYTywhOl1RO-12">
          <mxGeometry relative="1" as="geometry" />
        </mxCell>
        <mxCell id="VUNfQqrFmTYTywhOl1RO-6" value="Login" style="whiteSpace=wrap;html=1;aspect=fixed;" vertex="1" parent="WIyWlLk6GJQsqaUBKTNV-1">
          <mxGeometry x="290" y="520" width="80" height="80" as="geometry" />
        </mxCell>
        <mxCell id="VUNfQqrFmTYTywhOl1RO-36" style="edgeStyle=orthogonalEdgeStyle;rounded=0;orthogonalLoop=1;jettySize=auto;html=1;exitX=0.5;exitY=1;exitDx=0;exitDy=0;entryX=0.5;entryY=0;entryDx=0;entryDy=0;" edge="1" parent="WIyWlLk6GJQsqaUBKTNV-1" source="VUNfQqrFmTYTywhOl1RO-12" target="VUNfQqrFmTYTywhOl1RO-14">
          <mxGeometry relative="1" as="geometry" />
        </mxCell>
        <mxCell id="VUNfQqrFmTYTywhOl1RO-12" value="email&lt;div&gt;password&lt;/div&gt;&lt;div&gt;submit&lt;/div&gt;" style="whiteSpace=wrap;html=1;aspect=fixed;" vertex="1" parent="WIyWlLk6GJQsqaUBKTNV-1">
          <mxGeometry x="290" y="630" width="80" height="80" as="geometry" />
        </mxCell>
        <mxCell id="VUNfQqrFmTYTywhOl1RO-37" value="No" style="edgeStyle=orthogonalEdgeStyle;rounded=0;orthogonalLoop=1;jettySize=auto;html=1;exitX=0;exitY=0.5;exitDx=0;exitDy=0;entryX=0.5;entryY=1;entryDx=0;entryDy=0;" edge="1" parent="WIyWlLk6GJQsqaUBKTNV-1" source="VUNfQqrFmTYTywhOl1RO-14" target="VUNfQqrFmTYTywhOl1RO-17">
          <mxGeometry relative="1" as="geometry" />
        </mxCell>
        <mxCell id="VUNfQqrFmTYTywhOl1RO-39" value="Yes" style="edgeStyle=orthogonalEdgeStyle;rounded=0;orthogonalLoop=1;jettySize=auto;html=1;exitX=1;exitY=0.5;exitDx=0;exitDy=0;entryX=0;entryY=0.5;entryDx=0;entryDy=0;" edge="1" parent="WIyWlLk6GJQsqaUBKTNV-1" source="VUNfQqrFmTYTywhOl1RO-14" target="VUNfQqrFmTYTywhOl1RO-20">
          <mxGeometry relative="1" as="geometry" />
        </mxCell>
        <mxCell id="VUNfQqrFmTYTywhOl1RO-14" value="Login Sucess ?" style="rhombus;whiteSpace=wrap;html=1;" vertex="1" parent="WIyWlLk6GJQsqaUBKTNV-1">
          <mxGeometry x="280" y="740" width="100" height="105" as="geometry" />
        </mxCell>
        <mxCell id="VUNfQqrFmTYTywhOl1RO-38" style="edgeStyle=orthogonalEdgeStyle;rounded=0;orthogonalLoop=1;jettySize=auto;html=1;exitX=0.5;exitY=0;exitDx=0;exitDy=0;entryX=0;entryY=0.5;entryDx=0;entryDy=0;" edge="1" parent="WIyWlLk6GJQsqaUBKTNV-1" source="VUNfQqrFmTYTywhOl1RO-17" target="VUNfQqrFmTYTywhOl1RO-6">
          <mxGeometry relative="1" as="geometry" />
        </mxCell>
        <mxCell id="VUNfQqrFmTYTywhOl1RO-17" value="Error&lt;div&gt;&lt;br/&gt;&lt;/div&gt;" style="whiteSpace=wrap;html=1;aspect=fixed;" vertex="1" parent="WIyWlLk6GJQsqaUBKTNV-1">
          <mxGeometry x="150" y="630" width="80" height="80" as="geometry" />
        </mxCell>
        <mxCell id="VUNfQqrFmTYTywhOl1RO-40" style="edgeStyle=orthogonalEdgeStyle;rounded=0;orthogonalLoop=1;jettySize=auto;html=1;exitX=0.5;exitY=0;exitDx=0;exitDy=0;entryX=0.5;entryY=1;entryDx=0;entryDy=0;" edge="1" parent="WIyWlLk6GJQsqaUBKTNV-1" source="VUNfQqrFmTYTywhOl1RO-20" target="VUNfQqrFmTYTywhOl1RO-21">
          <mxGeometry relative="1" as="geometry" />
        </mxCell>
        <mxCell id="VUNfQqrFmTYTywhOl1RO-20" value="Dashboard" style="whiteSpace=wrap;html=1;aspect=fixed;" vertex="1" parent="WIyWlLk6GJQsqaUBKTNV-1">
          <mxGeometry x="460" y="752.5" width="80" height="80" as="geometry" />
        </mxCell>
        <mxCell id="VUNfQqrFmTYTywhOl1RO-41" style="edgeStyle=orthogonalEdgeStyle;rounded=0;orthogonalLoop=1;jettySize=auto;html=1;exitX=0.5;exitY=0;exitDx=0;exitDy=0;entryX=0.5;entryY=1;entryDx=0;entryDy=0;" edge="1" parent="WIyWlLk6GJQsqaUBKTNV-1" source="VUNfQqrFmTYTywhOl1RO-21" target="VUNfQqrFmTYTywhOl1RO-22">
          <mxGeometry relative="1" as="geometry" />
        </mxCell>
        <mxCell id="VUNfQqrFmTYTywhOl1RO-21" value="Create new document" style="whiteSpace=wrap;html=1;aspect=fixed;" vertex="1" parent="WIyWlLk6GJQsqaUBKTNV-1">
          <mxGeometry x="460" y="640" width="80" height="80" as="geometry" />
        </mxCell>
        <mxCell id="VUNfQqrFmTYTywhOl1RO-42" style="edgeStyle=orthogonalEdgeStyle;rounded=0;orthogonalLoop=1;jettySize=auto;html=1;exitX=0.5;exitY=0;exitDx=0;exitDy=0;entryX=0.5;entryY=1;entryDx=0;entryDy=0;" edge="1" parent="WIyWlLk6GJQsqaUBKTNV-1" source="VUNfQqrFmTYTywhOl1RO-22" target="VUNfQqrFmTYTywhOl1RO-23">
          <mxGeometry relative="1" as="geometry" />
        </mxCell>
        <mxCell id="VUNfQqrFmTYTywhOl1RO-22" value="Document&lt;div&gt;Form&lt;br&gt;submit&lt;/div&gt;" style="whiteSpace=wrap;html=1;aspect=fixed;" vertex="1" parent="WIyWlLk6GJQsqaUBKTNV-1">
          <mxGeometry x="460" y="520" width="80" height="80" as="geometry" />
        </mxCell>
        <mxCell id="VUNfQqrFmTYTywhOl1RO-43" style="edgeStyle=orthogonalEdgeStyle;rounded=0;orthogonalLoop=1;jettySize=auto;html=1;exitX=0.5;exitY=0;exitDx=0;exitDy=0;entryX=0.5;entryY=1;entryDx=0;entryDy=0;" edge="1" parent="WIyWlLk6GJQsqaUBKTNV-1" source="VUNfQqrFmTYTywhOl1RO-23" target="VUNfQqrFmTYTywhOl1RO-24">
          <mxGeometry relative="1" as="geometry" />
        </mxCell>
        <mxCell id="VUNfQqrFmTYTywhOl1RO-23" value="Document&lt;br&gt;Create" style="whiteSpace=wrap;html=1;aspect=fixed;" vertex="1" parent="WIyWlLk6GJQsqaUBKTNV-1">
          <mxGeometry x="460" y="405" width="80" height="80" as="geometry" />
        </mxCell>
        <mxCell id="VUNfQqrFmTYTywhOl1RO-44" style="edgeStyle=orthogonalEdgeStyle;rounded=0;orthogonalLoop=1;jettySize=auto;html=1;exitX=0.5;exitY=0;exitDx=0;exitDy=0;entryX=0.5;entryY=0;entryDx=0;entryDy=0;" edge="1" parent="WIyWlLk6GJQsqaUBKTNV-1" source="VUNfQqrFmTYTywhOl1RO-24" target="VUNfQqrFmTYTywhOl1RO-25">
          <mxGeometry relative="1" as="geometry" />
        </mxCell>
        <mxCell id="VUNfQqrFmTYTywhOl1RO-24" value="Document&lt;div&gt;Detail&lt;/div&gt;" style="whiteSpace=wrap;html=1;aspect=fixed;" vertex="1" parent="WIyWlLk6GJQsqaUBKTNV-1">
          <mxGeometry x="460" y="300" width="80" height="80" as="geometry" />
        </mxCell>
        <mxCell id="VUNfQqrFmTYTywhOl1RO-45" style="edgeStyle=orthogonalEdgeStyle;rounded=0;orthogonalLoop=1;jettySize=auto;html=1;exitX=0.5;exitY=1;exitDx=0;exitDy=0;" edge="1" parent="WIyWlLk6GJQsqaUBKTNV-1" source="VUNfQqrFmTYTywhOl1RO-25">
          <mxGeometry relative="1" as="geometry">
            <mxPoint x="660" y="400" as="targetPoint" />
          </mxGeometry>
        </mxCell>
        <mxCell id="VUNfQqrFmTYTywhOl1RO-25" value="Add File" style="whiteSpace=wrap;html=1;aspect=fixed;" vertex="1" parent="WIyWlLk6GJQsqaUBKTNV-1">
          <mxGeometry x="620" y="300" width="80" height="80" as="geometry" />
        </mxCell>
        <mxCell id="VUNfQqrFmTYTywhOl1RO-46" style="edgeStyle=orthogonalEdgeStyle;rounded=0;orthogonalLoop=1;jettySize=auto;html=1;exitX=0.5;exitY=1;exitDx=0;exitDy=0;entryX=0.5;entryY=0;entryDx=0;entryDy=0;" edge="1" parent="WIyWlLk6GJQsqaUBKTNV-1" source="VUNfQqrFmTYTywhOl1RO-26" target="VUNfQqrFmTYTywhOl1RO-27">
          <mxGeometry relative="1" as="geometry" />
        </mxCell>
        <mxCell id="VUNfQqrFmTYTywhOl1RO-26" value="Upload file or URL" style="whiteSpace=wrap;html=1;aspect=fixed;" vertex="1" parent="WIyWlLk6GJQsqaUBKTNV-1">
          <mxGeometry x="620" y="405" width="80" height="80" as="geometry" />
        </mxCell>
        <mxCell id="VUNfQqrFmTYTywhOl1RO-47" style="edgeStyle=orthogonalEdgeStyle;rounded=0;orthogonalLoop=1;jettySize=auto;html=1;exitX=0.5;exitY=1;exitDx=0;exitDy=0;entryX=0.5;entryY=0;entryDx=0;entryDy=0;" edge="1" parent="WIyWlLk6GJQsqaUBKTNV-1" source="VUNfQqrFmTYTywhOl1RO-27" target="VUNfQqrFmTYTywhOl1RO-28">
          <mxGeometry relative="1" as="geometry" />
        </mxCell>
        <mxCell id="VUNfQqrFmTYTywhOl1RO-27" value="File&lt;div&gt;Submit&lt;/div&gt;" style="whiteSpace=wrap;html=1;aspect=fixed;" vertex="1" parent="WIyWlLk6GJQsqaUBKTNV-1">
          <mxGeometry x="620" y="520" width="80" height="80" as="geometry" />
        </mxCell>
        <mxCell id="VUNfQqrFmTYTywhOl1RO-49" style="edgeStyle=orthogonalEdgeStyle;rounded=0;orthogonalLoop=1;jettySize=auto;html=1;exitX=0.5;exitY=1;exitDx=0;exitDy=0;entryX=0.5;entryY=0;entryDx=0;entryDy=0;" edge="1" parent="WIyWlLk6GJQsqaUBKTNV-1" source="VUNfQqrFmTYTywhOl1RO-28" target="VUNfQqrFmTYTywhOl1RO-29">
          <mxGeometry relative="1" as="geometry" />
        </mxCell>
        <mxCell id="VUNfQqrFmTYTywhOl1RO-28" value="Backend process&lt;div&gt;data&lt;/div&gt;" style="whiteSpace=wrap;html=1;aspect=fixed;" vertex="1" parent="WIyWlLk6GJQsqaUBKTNV-1">
          <mxGeometry x="620" y="640" width="80" height="80" as="geometry" />
        </mxCell>
        <mxCell id="VUNfQqrFmTYTywhOl1RO-50" style="edgeStyle=orthogonalEdgeStyle;rounded=0;orthogonalLoop=1;jettySize=auto;html=1;exitX=1;exitY=0.5;exitDx=0;exitDy=0;entryX=0;entryY=0.5;entryDx=0;entryDy=0;" edge="1" parent="WIyWlLk6GJQsqaUBKTNV-1" source="VUNfQqrFmTYTywhOl1RO-29" target="VUNfQqrFmTYTywhOl1RO-30">
          <mxGeometry relative="1" as="geometry" />
        </mxCell>
        <mxCell id="VUNfQqrFmTYTywhOl1RO-29" value="File&lt;div&gt;Status&lt;/div&gt;&lt;div&gt;PROCESSING&lt;/div&gt;" style="whiteSpace=wrap;html=1;aspect=fixed;" vertex="1" parent="WIyWlLk6GJQsqaUBKTNV-1">
          <mxGeometry x="610" y="760" width="100" height="100" as="geometry" />
        </mxCell>
        <mxCell id="VUNfQqrFmTYTywhOl1RO-30" value="End" style="ellipse;whiteSpace=wrap;html=1;" vertex="1" parent="WIyWlLk6GJQsqaUBKTNV-1">
          <mxGeometry x="790" y="770" width="120" height="80" as="geometry" />
        </mxCell>
      </root>
    </mxGraphModel>
  </diagram>
</mxfile>
